<mxfile host="app.diagrams.net" agent="Mozilla/5.0 (Windows NT 10.0; Win64; x64) AppleWebKit/537.36 (KHTML, like Gecko) Chrome/133.0.0.0 Safari/537.36" version="26.2.3">
  <diagram name="Trang-1" id="3SGoxRYm-0BptGTWVGw5">
    <mxGraphModel grid="1" page="1" gridSize="10" guides="1" tooltips="1" connect="1" arrows="1" fold="1" pageScale="1" pageWidth="2339" pageHeight="3300" math="0" shadow="0">
      <root>
        <mxCell id="0" />
        <mxCell id="1" parent="0" />
        <mxCell id="yhNoiGG6qeoDsK0MJDtQ-1" value="&lt;font style=&quot;font-size: 24px;&quot;&gt;NHÀ CUNG CẤP&lt;/font&gt;" style="rounded=0;whiteSpace=wrap;html=1;" vertex="1" parent="1">
          <mxGeometry x="200" y="180" width="200" height="60" as="geometry" />
        </mxCell>
        <mxCell id="yhNoiGG6qeoDsK0MJDtQ-2" value="&lt;font style=&quot;font-size: 24px;&quot;&gt;cung cấp&lt;/font&gt;" style="rhombus;whiteSpace=wrap;html=1;" vertex="1" parent="1">
          <mxGeometry x="550" y="180" width="130" height="60" as="geometry" />
        </mxCell>
        <mxCell id="yhNoiGG6qeoDsK0MJDtQ-3" value="" style="fontSize=12;html=1;endArrow=ERoneToMany;rounded=0;entryX=1;entryY=0.5;entryDx=0;entryDy=0;" edge="1" parent="1">
          <mxGeometry width="100" height="100" relative="1" as="geometry">
            <mxPoint x="550" y="209.5" as="sourcePoint" />
            <mxPoint x="399.99999999999955" y="209.98000000000002" as="targetPoint" />
          </mxGeometry>
        </mxCell>
        <mxCell id="yhNoiGG6qeoDsK0MJDtQ-4" value="&lt;font style=&quot;font-size: 24px;&quot;&gt;Dia chi&lt;/font&gt;" style="ellipse;whiteSpace=wrap;html=1;" vertex="1" parent="1">
          <mxGeometry x="120" y="275" width="120" height="80" as="geometry" />
        </mxCell>
        <mxCell id="yhNoiGG6qeoDsK0MJDtQ-5" value="&lt;font style=&quot;font-size: 24px;&quot;&gt;Loai hang&lt;/font&gt;" style="ellipse;whiteSpace=wrap;html=1;" vertex="1" parent="1">
          <mxGeometry x="310" y="285" width="120" height="70" as="geometry" />
        </mxCell>
        <mxCell id="yhNoiGG6qeoDsK0MJDtQ-6" value="&lt;br&gt;&lt;span style=&quot;forced-color-adjust: none; color: rgb(0, 0, 0); font-family: Helvetica; font-size: 24px; font-style: normal; font-variant-ligatures: normal; font-variant-caps: normal; font-weight: 400; letter-spacing: normal; orphans: 2; text-align: center; text-indent: 0px; text-transform: none; widows: 2; word-spacing: 0px; -webkit-text-stroke-width: 0px; white-space: normal; background-color: rgb(236, 236, 236);&quot;&gt;MaNCC&lt;/span&gt;&lt;div&gt;&lt;br/&gt;&lt;/div&gt;" style="ellipse;whiteSpace=wrap;html=1;" vertex="1" parent="1">
          <mxGeometry x="940" y="285" width="120" height="70" as="geometry" />
        </mxCell>
        <mxCell id="yhNoiGG6qeoDsK0MJDtQ-7" value="&lt;font style=&quot;font-size: 24px;&quot;&gt;&lt;u&gt;MaNCC&lt;/u&gt;&lt;/font&gt;" style="ellipse;whiteSpace=wrap;html=1;" vertex="1" parent="1">
          <mxGeometry x="160" y="70" width="130" height="70" as="geometry" />
        </mxCell>
        <mxCell id="yhNoiGG6qeoDsK0MJDtQ-8" value="&lt;font style=&quot;font-size: 24px;&quot;&gt;TenNCC&lt;/font&gt;" style="ellipse;whiteSpace=wrap;html=1;" vertex="1" parent="1">
          <mxGeometry x="340" y="65" width="120" height="75" as="geometry" />
        </mxCell>
        <mxCell id="yhNoiGG6qeoDsK0MJDtQ-9" value="&lt;font style=&quot;font-size: 24px;&quot;&gt;HSD&lt;/font&gt;" style="ellipse;whiteSpace=wrap;html=1;" vertex="1" parent="1">
          <mxGeometry x="690" y="260" width="120" height="80" as="geometry" />
        </mxCell>
        <mxCell id="yhNoiGG6qeoDsK0MJDtQ-10" value="&lt;font style=&quot;font-size: 24px;&quot;&gt;&lt;u&gt;MaHang&lt;/u&gt;&lt;/font&gt;" style="ellipse;whiteSpace=wrap;html=1;" vertex="1" parent="1">
          <mxGeometry x="730" y="65" width="120" height="80" as="geometry" />
        </mxCell>
        <mxCell id="yhNoiGG6qeoDsK0MJDtQ-11" value="&lt;font style=&quot;font-size: 24px;&quot;&gt;Ten Hang&lt;/font&gt;" style="ellipse;whiteSpace=wrap;html=1;" vertex="1" parent="1">
          <mxGeometry x="900" y="60" width="120" height="80" as="geometry" />
        </mxCell>
        <mxCell id="yhNoiGG6qeoDsK0MJDtQ-12" value="" style="endArrow=none;html=1;rounded=0;" edge="1" parent="1">
          <mxGeometry width="50" height="50" relative="1" as="geometry">
            <mxPoint x="2660" y="1090" as="sourcePoint" />
            <mxPoint x="2710" y="1040" as="targetPoint" />
          </mxGeometry>
        </mxCell>
        <mxCell id="yhNoiGG6qeoDsK0MJDtQ-13" value="" style="endArrow=none;html=1;rounded=0;exitX=0.25;exitY=0;exitDx=0;exitDy=0;" edge="1" parent="1" source="yhNoiGG6qeoDsK0MJDtQ-1">
          <mxGeometry width="50" height="50" relative="1" as="geometry">
            <mxPoint x="190" y="190" as="sourcePoint" />
            <mxPoint x="240" y="140" as="targetPoint" />
          </mxGeometry>
        </mxCell>
        <mxCell id="yhNoiGG6qeoDsK0MJDtQ-14" value="" style="endArrow=none;html=1;rounded=0;entryX=0.332;entryY=0.975;entryDx=0;entryDy=0;entryPerimeter=0;exitX=0.717;exitY=0.002;exitDx=0;exitDy=0;exitPerimeter=0;" edge="1" parent="1" source="yhNoiGG6qeoDsK0MJDtQ-1" target="yhNoiGG6qeoDsK0MJDtQ-8">
          <mxGeometry width="50" height="50" relative="1" as="geometry">
            <mxPoint x="320" y="200" as="sourcePoint" />
            <mxPoint x="370" y="150" as="targetPoint" />
          </mxGeometry>
        </mxCell>
        <mxCell id="yhNoiGG6qeoDsK0MJDtQ-15" value="" style="endArrow=none;html=1;rounded=0;entryX=0.703;entryY=1.054;entryDx=0;entryDy=0;entryPerimeter=0;" edge="1" parent="1" source="yhNoiGG6qeoDsK0MJDtQ-5" target="yhNoiGG6qeoDsK0MJDtQ-1">
          <mxGeometry width="50" height="50" relative="1" as="geometry">
            <mxPoint x="160" y="290" as="sourcePoint" />
            <mxPoint x="210" y="240" as="targetPoint" />
          </mxGeometry>
        </mxCell>
        <mxCell id="yhNoiGG6qeoDsK0MJDtQ-16" value="" style="endArrow=none;html=1;rounded=0;entryX=0.293;entryY=1.007;entryDx=0;entryDy=0;entryPerimeter=0;" edge="1" parent="1" source="yhNoiGG6qeoDsK0MJDtQ-4" target="yhNoiGG6qeoDsK0MJDtQ-1">
          <mxGeometry width="50" height="50" relative="1" as="geometry">
            <mxPoint x="150" y="260" as="sourcePoint" />
            <mxPoint x="200" y="210" as="targetPoint" />
          </mxGeometry>
        </mxCell>
        <mxCell id="yhNoiGG6qeoDsK0MJDtQ-17" value="" style="endArrow=none;html=1;rounded=0;entryX=0.75;entryY=1;entryDx=0;entryDy=0;" edge="1" parent="1" source="yhNoiGG6qeoDsK0MJDtQ-6" target="yhNoiGG6qeoDsK0MJDtQ-20">
          <mxGeometry width="50" height="50" relative="1" as="geometry">
            <mxPoint x="240" y="290" as="sourcePoint" />
            <mxPoint x="290" y="240" as="targetPoint" />
          </mxGeometry>
        </mxCell>
        <mxCell id="yhNoiGG6qeoDsK0MJDtQ-18" value="" style="endArrow=none;html=1;rounded=0;entryX=0;entryY=1;entryDx=0;entryDy=0;" edge="1" parent="1" source="yhNoiGG6qeoDsK0MJDtQ-9" target="yhNoiGG6qeoDsK0MJDtQ-20">
          <mxGeometry width="50" height="50" relative="1" as="geometry">
            <mxPoint x="330" y="290" as="sourcePoint" />
            <mxPoint x="380" y="240" as="targetPoint" />
          </mxGeometry>
        </mxCell>
        <mxCell id="yhNoiGG6qeoDsK0MJDtQ-20" value="&lt;font style=&quot;font-size: 24px;&quot;&gt;HÀNG HÓA&lt;/font&gt;" style="rounded=0;whiteSpace=wrap;html=1;" vertex="1" parent="1">
          <mxGeometry x="840" y="180" width="140" height="60" as="geometry" />
        </mxCell>
        <mxCell id="yhNoiGG6qeoDsK0MJDtQ-21" value="" style="fontSize=12;html=1;endArrow=ERoneToMany;rounded=0;exitX=1;exitY=0.5;exitDx=0;exitDy=0;" edge="1" parent="1">
          <mxGeometry width="100" height="100" relative="1" as="geometry">
            <mxPoint x="680" y="209.5" as="sourcePoint" />
            <mxPoint x="840" y="210" as="targetPoint" />
          </mxGeometry>
        </mxCell>
        <mxCell id="yhNoiGG6qeoDsK0MJDtQ-22" value="&lt;font style=&quot;font-size: 24px;&quot;&gt;DVT&lt;/font&gt;" style="ellipse;whiteSpace=wrap;html=1;" vertex="1" parent="1">
          <mxGeometry x="1060" y="210" width="120" height="80" as="geometry" />
        </mxCell>
        <mxCell id="yhNoiGG6qeoDsK0MJDtQ-23" value="&lt;font style=&quot;font-size: 24px;&quot;&gt;Đơn Gia&lt;/font&gt;" style="ellipse;whiteSpace=wrap;html=1;" vertex="1" parent="1">
          <mxGeometry x="1030" y="100" width="120" height="80" as="geometry" />
        </mxCell>
        <mxCell id="yhNoiGG6qeoDsK0MJDtQ-25" value="" style="endArrow=none;html=1;rounded=0;" edge="1" parent="1" source="yhNoiGG6qeoDsK0MJDtQ-20">
          <mxGeometry width="50" height="50" relative="1" as="geometry">
            <mxPoint x="760" y="190" as="sourcePoint" />
            <mxPoint x="810" y="140" as="targetPoint" />
          </mxGeometry>
        </mxCell>
        <mxCell id="yhNoiGG6qeoDsK0MJDtQ-26" value="" style="endArrow=none;html=1;rounded=0;" edge="1" parent="1" target="yhNoiGG6qeoDsK0MJDtQ-11">
          <mxGeometry width="50" height="50" relative="1" as="geometry">
            <mxPoint x="910" y="180" as="sourcePoint" />
            <mxPoint x="960" y="130" as="targetPoint" />
          </mxGeometry>
        </mxCell>
        <mxCell id="yhNoiGG6qeoDsK0MJDtQ-27" value="" style="endArrow=none;html=1;rounded=0;exitX=1;exitY=0.25;exitDx=0;exitDy=0;" edge="1" parent="1" source="yhNoiGG6qeoDsK0MJDtQ-20">
          <mxGeometry width="50" height="50" relative="1" as="geometry">
            <mxPoint x="1030" y="210" as="sourcePoint" />
            <mxPoint x="1050" y="170" as="targetPoint" />
          </mxGeometry>
        </mxCell>
        <mxCell id="yhNoiGG6qeoDsK0MJDtQ-28" value="" style="endArrow=none;html=1;rounded=0;exitX=1;exitY=0.75;exitDx=0;exitDy=0;entryX=0.007;entryY=0.423;entryDx=0;entryDy=0;entryPerimeter=0;" edge="1" parent="1" source="yhNoiGG6qeoDsK0MJDtQ-20" target="yhNoiGG6qeoDsK0MJDtQ-22">
          <mxGeometry width="50" height="50" relative="1" as="geometry">
            <mxPoint x="1000" y="310" as="sourcePoint" />
            <mxPoint x="1050" y="260" as="targetPoint" />
          </mxGeometry>
        </mxCell>
        <mxCell id="KxiG0NLmOwjeQJkuFUyw-3" value="" style="fontSize=12;html=1;endArrow=ERoneToMany;rounded=0;entryX=0.363;entryY=1.008;entryDx=0;entryDy=0;entryPerimeter=0;" edge="1" parent="1" target="yhNoiGG6qeoDsK0MJDtQ-20">
          <mxGeometry width="100" height="100" relative="1" as="geometry">
            <mxPoint x="891" y="480" as="sourcePoint" />
            <mxPoint x="890" y="250" as="targetPoint" />
          </mxGeometry>
        </mxCell>
        <mxCell id="KxiG0NLmOwjeQJkuFUyw-4" value="" style="fontSize=12;html=1;endArrow=ERoneToMany;rounded=0;exitX=1;exitY=0.5;exitDx=0;exitDy=0;" edge="1" parent="1" source="KxiG0NLmOwjeQJkuFUyw-5">
          <mxGeometry width="100" height="100" relative="1" as="geometry">
            <mxPoint x="590" y="440" as="sourcePoint" />
            <mxPoint x="890" y="850" as="targetPoint" />
          </mxGeometry>
        </mxCell>
        <mxCell id="KxiG0NLmOwjeQJkuFUyw-5" value="&lt;font style=&quot;font-size: 24px;&quot;&gt;chứa&lt;/font&gt;" style="rhombus;whiteSpace=wrap;html=1;rotation=90;" vertex="1" parent="1">
          <mxGeometry x="825" y="500" width="130" height="90" as="geometry" />
        </mxCell>
        <mxCell id="KxiG0NLmOwjeQJkuFUyw-6" value="&lt;font style=&quot;font-size: 24px;&quot;&gt;HÓA ĐƠN&lt;/font&gt;" style="rounded=0;whiteSpace=wrap;html=1;rotation=90;" vertex="1" parent="1">
          <mxGeometry x="800" y="910" width="180" height="60" as="geometry" />
        </mxCell>
        <mxCell id="KxiG0NLmOwjeQJkuFUyw-8" value="&lt;font style=&quot;font-size: 24px;&quot;&gt;Loai HD&lt;/font&gt;" style="ellipse;whiteSpace=wrap;html=1;" vertex="1" parent="1">
          <mxGeometry x="1030" y="810" width="120" height="80" as="geometry" />
        </mxCell>
        <mxCell id="KxiG0NLmOwjeQJkuFUyw-9" value="&lt;font style=&quot;font-size: 24px;&quot;&gt;&lt;u&gt;SoHoaDon&lt;/u&gt;&lt;/font&gt;" style="ellipse;whiteSpace=wrap;html=1;" vertex="1" parent="1">
          <mxGeometry x="945" y="740" width="130" height="80" as="geometry" />
        </mxCell>
        <mxCell id="KxiG0NLmOwjeQJkuFUyw-10" value="&lt;font style=&quot;font-size: 24px;&quot;&gt;TenNV&lt;/font&gt;" style="ellipse;whiteSpace=wrap;html=1;" vertex="1" parent="1">
          <mxGeometry x="730" y="1570" width="120" height="80" as="geometry" />
        </mxCell>
        <mxCell id="KxiG0NLmOwjeQJkuFUyw-11" value="&lt;font style=&quot;font-size: 24px;&quot;&gt;So Luong&lt;/font&gt;" style="ellipse;whiteSpace=wrap;html=1;" vertex="1" parent="1">
          <mxGeometry x="1050" y="960" width="120" height="80" as="geometry" />
        </mxCell>
        <mxCell id="KxiG0NLmOwjeQJkuFUyw-12" value="&lt;font style=&quot;font-size: 24px;&quot;&gt;Ngay Lap&lt;/font&gt;" style="ellipse;whiteSpace=wrap;html=1;" vertex="1" parent="1">
          <mxGeometry x="940" y="1050" width="120" height="80" as="geometry" />
        </mxCell>
        <mxCell id="KxiG0NLmOwjeQJkuFUyw-13" value="&lt;font style=&quot;font-size: 24px;&quot;&gt;Thanh Tien&lt;/font&gt;" style="ellipse;whiteSpace=wrap;html=1;" vertex="1" parent="1">
          <mxGeometry x="695" y="1050" width="130" height="80" as="geometry" />
        </mxCell>
        <mxCell id="KxiG0NLmOwjeQJkuFUyw-14" value="&lt;font style=&quot;font-size: 24px;&quot;&gt;MaKH&lt;/font&gt;" style="ellipse;whiteSpace=wrap;html=1;" vertex="1" parent="1">
          <mxGeometry x="640" y="950" width="120" height="80" as="geometry" />
        </mxCell>
        <mxCell id="KxiG0NLmOwjeQJkuFUyw-15" value="&lt;font style=&quot;font-size: 24px;&quot;&gt;Ma Hang&lt;/font&gt;" style="ellipse;whiteSpace=wrap;html=1;" vertex="1" parent="1">
          <mxGeometry x="630" y="850" width="120" height="80" as="geometry" />
        </mxCell>
        <mxCell id="KxiG0NLmOwjeQJkuFUyw-16" value="&lt;font style=&quot;font-size: 24px;&quot;&gt;MaNV&lt;/font&gt;" style="ellipse;whiteSpace=wrap;html=1;" vertex="1" parent="1">
          <mxGeometry x="720" y="760" width="120" height="80" as="geometry" />
        </mxCell>
        <mxCell id="KxiG0NLmOwjeQJkuFUyw-17" value="&lt;font style=&quot;font-size: 24px;&quot;&gt;Chuc Vu&lt;/font&gt;&lt;span style=&quot;color: rgba(0, 0, 0, 0); font-family: monospace; font-size: 0px; text-align: start; text-wrap-mode: nowrap;&quot;&gt;%3CmxGraphModel%3E%3Croot%3E%3CmxCell%20id%3D%220%22%2F%3E%3CmxCell%20id%3D%221%22%20parent%3D%220%22%2F%3E%3CmxCell%20id%3D%222%22%20value%3D%22%26lt%3Bfont%20style%3D%26quot%3Bfont-size%3A%2024px%3B%26quot%3B%26gt%3B%26lt%3Bu%26gt%3BSoHoaDon%26lt%3B%2Fu%26gt%3B%26lt%3B%2Ffont%26gt%3B%22%20style%3D%22ellipse%3BwhiteSpace%3Dwrap%3Bhtml%3D1%3B%22%20vertex%3D%221%22%20parent%3D%221%22%3E%3CmxGeometry%20x%3D%22945%22%20y%3D%22740%22%20width%3D%22130%22%20height%3D%2280%22%20as%3D%22geometry%22%2F%3E%3C%2FmxCell%3E%3C%2Froot%3E%3C%2FmxGraphModel%3E&lt;/span&gt;&lt;span style=&quot;color: rgba(0, 0, 0, 0); font-family: monospace; font-size: 0px; text-align: start; text-wrap-mode: nowrap;&quot;&gt;%3CmxGraphModel%3E%3Croot%3E%3CmxCell%20id%3D%220%22%2F%3E%3CmxCell%20id%3D%221%22%20parent%3D%220%22%2F%3E%3CmxCell%20id%3D%222%22%20value%3D%22%26lt%3Bfont%20style%3D%26quot%3Bfont-size%3A%2024px%3B%26quot%3B%26gt%3B%26lt%3Bu%26gt%3BSoHoaDon%26lt%3B%2Fu%26gt%3B%26lt%3B%2Ffont%26gt%3B%22%20style%3D%22ellipse%3BwhiteSpace%3Dwrap%3Bhtml%3D1%3B%22%20vertex%3D%221%22%20parent%3D%221%22%3E%3CmxGeometry%20x%3D%22945%22%20y%3D%22740%22%20width%3D%22130%22%20height%3D%2280%22%20as%3D%22geometry%22%2F%3E%3C%2FmxCell%3E%3C%2Froot%3E%3C%2FmxGraphModel%3E&lt;/span&gt;" style="ellipse;whiteSpace=wrap;html=1;" vertex="1" parent="1">
          <mxGeometry x="650" y="1680" width="120" height="80" as="geometry" />
        </mxCell>
        <mxCell id="KxiG0NLmOwjeQJkuFUyw-18" value="" style="endArrow=none;html=1;rounded=0;exitX=1;exitY=0.5;exitDx=0;exitDy=0;" edge="1" parent="1" source="KxiG0NLmOwjeQJkuFUyw-14" target="KxiG0NLmOwjeQJkuFUyw-6">
          <mxGeometry width="50" height="50" relative="1" as="geometry">
            <mxPoint x="810" y="1130" as="sourcePoint" />
            <mxPoint x="860" y="1080" as="targetPoint" />
          </mxGeometry>
        </mxCell>
        <mxCell id="KxiG0NLmOwjeQJkuFUyw-19" value="" style="endArrow=none;html=1;rounded=0;entryX=0.223;entryY=0.939;entryDx=0;entryDy=0;entryPerimeter=0;exitX=0.056;exitY=0.013;exitDx=0;exitDy=0;exitPerimeter=0;" edge="1" parent="1" source="KxiG0NLmOwjeQJkuFUyw-6" target="KxiG0NLmOwjeQJkuFUyw-9">
          <mxGeometry width="50" height="50" relative="1" as="geometry">
            <mxPoint x="920" y="940" as="sourcePoint" />
            <mxPoint x="960" y="900" as="targetPoint" />
          </mxGeometry>
        </mxCell>
        <mxCell id="KxiG0NLmOwjeQJkuFUyw-20" value="" style="endArrow=none;html=1;rounded=0;exitX=0.305;exitY=0.03;exitDx=0;exitDy=0;exitPerimeter=0;entryX=0.005;entryY=0.674;entryDx=0;entryDy=0;entryPerimeter=0;" edge="1" parent="1" source="KxiG0NLmOwjeQJkuFUyw-6" target="KxiG0NLmOwjeQJkuFUyw-8">
          <mxGeometry width="50" height="50" relative="1" as="geometry">
            <mxPoint x="990" y="1000" as="sourcePoint" />
            <mxPoint x="1040" y="950" as="targetPoint" />
          </mxGeometry>
        </mxCell>
        <mxCell id="KxiG0NLmOwjeQJkuFUyw-21" value="" style="endArrow=none;html=1;rounded=0;exitX=0.75;exitY=0;exitDx=0;exitDy=0;entryX=0;entryY=0.5;entryDx=0;entryDy=0;" edge="1" parent="1" source="KxiG0NLmOwjeQJkuFUyw-6" target="KxiG0NLmOwjeQJkuFUyw-11">
          <mxGeometry width="50" height="50" relative="1" as="geometry">
            <mxPoint x="1030" y="1130" as="sourcePoint" />
            <mxPoint x="1080" y="1080" as="targetPoint" />
          </mxGeometry>
        </mxCell>
        <mxCell id="KxiG0NLmOwjeQJkuFUyw-22" value="" style="endArrow=none;html=1;rounded=0;exitX=0.953;exitY=0.062;exitDx=0;exitDy=0;exitPerimeter=0;entryX=0.383;entryY=0.005;entryDx=0;entryDy=0;entryPerimeter=0;" edge="1" parent="1" source="KxiG0NLmOwjeQJkuFUyw-6" target="KxiG0NLmOwjeQJkuFUyw-12">
          <mxGeometry width="50" height="50" relative="1" as="geometry">
            <mxPoint x="960" y="1180" as="sourcePoint" />
            <mxPoint x="1010" y="1130" as="targetPoint" />
          </mxGeometry>
        </mxCell>
        <mxCell id="KxiG0NLmOwjeQJkuFUyw-23" value="" style="endArrow=none;html=1;rounded=0;exitX=0.684;exitY=0.058;exitDx=0;exitDy=0;exitPerimeter=0;entryX=0.913;entryY=1.02;entryDx=0;entryDy=0;entryPerimeter=0;" edge="1" parent="1" source="KxiG0NLmOwjeQJkuFUyw-13" target="KxiG0NLmOwjeQJkuFUyw-6">
          <mxGeometry width="50" height="50" relative="1" as="geometry">
            <mxPoint x="840" y="1150" as="sourcePoint" />
            <mxPoint x="890" y="1100" as="targetPoint" />
          </mxGeometry>
        </mxCell>
        <mxCell id="KxiG0NLmOwjeQJkuFUyw-24" value="" style="endArrow=none;html=1;rounded=0;exitX=0.655;exitY=0.987;exitDx=0;exitDy=0;exitPerimeter=0;entryX=0.167;entryY=1;entryDx=0;entryDy=0;entryPerimeter=0;" edge="1" parent="1" source="KxiG0NLmOwjeQJkuFUyw-16" target="KxiG0NLmOwjeQJkuFUyw-6">
          <mxGeometry width="50" height="50" relative="1" as="geometry">
            <mxPoint x="810" y="980" as="sourcePoint" />
            <mxPoint x="860" y="930" as="targetPoint" />
          </mxGeometry>
        </mxCell>
        <mxCell id="KxiG0NLmOwjeQJkuFUyw-25" value="" style="endArrow=none;html=1;rounded=0;exitX=0.995;exitY=0.597;exitDx=0;exitDy=0;exitPerimeter=0;entryX=0.31;entryY=0.937;entryDx=0;entryDy=0;entryPerimeter=0;" edge="1" parent="1" source="KxiG0NLmOwjeQJkuFUyw-15" target="KxiG0NLmOwjeQJkuFUyw-6">
          <mxGeometry width="50" height="50" relative="1" as="geometry">
            <mxPoint x="810" y="1010" as="sourcePoint" />
            <mxPoint x="860" y="960" as="targetPoint" />
          </mxGeometry>
        </mxCell>
        <mxCell id="KxiG0NLmOwjeQJkuFUyw-26" value="" style="fontSize=12;html=1;endArrow=ERmandOne;rounded=0;entryX=0.5;entryY=0;entryDx=0;entryDy=0;" edge="1" parent="1" target="KxiG0NLmOwjeQJkuFUyw-6">
          <mxGeometry width="100" height="100" relative="1" as="geometry">
            <mxPoint x="1280" y="940" as="sourcePoint" />
            <mxPoint x="740" y="740" as="targetPoint" />
          </mxGeometry>
        </mxCell>
        <mxCell id="KxiG0NLmOwjeQJkuFUyw-27" value="" style="fontSize=12;html=1;endArrow=ERmandOne;rounded=0;entryX=1;entryY=0.5;entryDx=0;entryDy=0;" edge="1" parent="1" target="KxiG0NLmOwjeQJkuFUyw-6">
          <mxGeometry width="100" height="100" relative="1" as="geometry">
            <mxPoint x="890" y="1270" as="sourcePoint" />
            <mxPoint x="877.5" y="1320" as="targetPoint" />
          </mxGeometry>
        </mxCell>
        <mxCell id="KxiG0NLmOwjeQJkuFUyw-29" value="&lt;font style=&quot;font-size: 24px;&quot;&gt;lập&lt;/font&gt;" style="rhombus;whiteSpace=wrap;html=1;rotation=90;" vertex="1" parent="1">
          <mxGeometry x="825" y="1300" width="130" height="60" as="geometry" />
        </mxCell>
        <mxCell id="KxiG0NLmOwjeQJkuFUyw-30" value="&lt;font style=&quot;font-size: 24px;&quot;&gt;nhận&lt;/font&gt;" style="rhombus;whiteSpace=wrap;html=1;" vertex="1" parent="1">
          <mxGeometry x="1280" y="910" width="130" height="60" as="geometry" />
        </mxCell>
        <mxCell id="KxiG0NLmOwjeQJkuFUyw-31" value="" style="fontSize=12;html=1;endArrow=ERoneToMany;rounded=0;exitX=1;exitY=0.5;exitDx=0;exitDy=0;" edge="1" parent="1" source="KxiG0NLmOwjeQJkuFUyw-29">
          <mxGeometry width="100" height="100" relative="1" as="geometry">
            <mxPoint x="810" y="1330" as="sourcePoint" />
            <mxPoint x="890" y="1630" as="targetPoint" />
          </mxGeometry>
        </mxCell>
        <mxCell id="KxiG0NLmOwjeQJkuFUyw-32" value="&lt;font style=&quot;font-size: 24px;&quot;&gt;NHÂN VIÊN&lt;/font&gt;" style="rounded=0;whiteSpace=wrap;html=1;rotation=90;" vertex="1" parent="1">
          <mxGeometry x="790" y="1700" width="200" height="60" as="geometry" />
        </mxCell>
        <mxCell id="KxiG0NLmOwjeQJkuFUyw-34" value="&lt;font style=&quot;font-size: 24px;&quot;&gt;&lt;u&gt;MaNV&lt;/u&gt;&lt;/font&gt;" style="ellipse;whiteSpace=wrap;html=1;" vertex="1" parent="1">
          <mxGeometry x="955" y="1580" width="130" height="80" as="geometry" />
        </mxCell>
        <mxCell id="KxiG0NLmOwjeQJkuFUyw-35" value="&lt;span style=&quot;font-size: 24px;&quot;&gt;SDT&lt;/span&gt;" style="ellipse;whiteSpace=wrap;html=1;" vertex="1" parent="1">
          <mxGeometry x="670" y="1790" width="120" height="80" as="geometry" />
        </mxCell>
        <mxCell id="KxiG0NLmOwjeQJkuFUyw-36" value="&lt;span style=&quot;font-size: 24px;&quot;&gt;Ngay Sinh&lt;/span&gt;" style="ellipse;whiteSpace=wrap;html=1;" vertex="1" parent="1">
          <mxGeometry x="980" y="1820" width="120" height="80" as="geometry" />
        </mxCell>
        <mxCell id="KxiG0NLmOwjeQJkuFUyw-37" value="&lt;span style=&quot;font-size: 24px;&quot;&gt;Dia Chi&lt;/span&gt;" style="ellipse;whiteSpace=wrap;html=1;" vertex="1" parent="1">
          <mxGeometry x="990" y="1700" width="120" height="80" as="geometry" />
        </mxCell>
        <mxCell id="KxiG0NLmOwjeQJkuFUyw-38" value="&lt;span style=&quot;font-size: 24px;&quot;&gt;Luong&lt;/span&gt;" style="ellipse;whiteSpace=wrap;html=1;" vertex="1" parent="1">
          <mxGeometry x="820" y="1860" width="120" height="80" as="geometry" />
        </mxCell>
        <mxCell id="KxiG0NLmOwjeQJkuFUyw-39" value="" style="endArrow=none;html=1;rounded=0;exitX=0.25;exitY=0;exitDx=0;exitDy=0;entryX=0;entryY=1;entryDx=0;entryDy=0;" edge="1" parent="1" source="KxiG0NLmOwjeQJkuFUyw-32" target="KxiG0NLmOwjeQJkuFUyw-34">
          <mxGeometry width="50" height="50" relative="1" as="geometry">
            <mxPoint x="920" y="1700" as="sourcePoint" />
            <mxPoint x="970" y="1650" as="targetPoint" />
          </mxGeometry>
        </mxCell>
        <mxCell id="KxiG0NLmOwjeQJkuFUyw-40" value="" style="endArrow=none;html=1;rounded=0;exitX=0.633;exitY=-0.011;exitDx=0;exitDy=0;exitPerimeter=0;" edge="1" parent="1" source="KxiG0NLmOwjeQJkuFUyw-32">
          <mxGeometry width="50" height="50" relative="1" as="geometry">
            <mxPoint x="950" y="1810" as="sourcePoint" />
            <mxPoint x="1000" y="1760" as="targetPoint" />
          </mxGeometry>
        </mxCell>
        <mxCell id="KxiG0NLmOwjeQJkuFUyw-41" value="" style="endArrow=none;html=1;rounded=0;exitX=0.19;exitY=1.053;exitDx=0;exitDy=0;exitPerimeter=0;" edge="1" parent="1" source="KxiG0NLmOwjeQJkuFUyw-32">
          <mxGeometry width="50" height="50" relative="1" as="geometry">
            <mxPoint x="760" y="1700" as="sourcePoint" />
            <mxPoint x="810" y="1650" as="targetPoint" />
          </mxGeometry>
        </mxCell>
        <mxCell id="KxiG0NLmOwjeQJkuFUyw-42" value="" style="endArrow=none;html=1;rounded=0;" edge="1" parent="1" source="KxiG0NLmOwjeQJkuFUyw-17">
          <mxGeometry width="50" height="50" relative="1" as="geometry">
            <mxPoint x="810" y="1790" as="sourcePoint" />
            <mxPoint x="860" y="1740" as="targetPoint" />
          </mxGeometry>
        </mxCell>
        <mxCell id="KxiG0NLmOwjeQJkuFUyw-43" value="" style="endArrow=none;html=1;rounded=0;exitX=0.919;exitY=0.286;exitDx=0;exitDy=0;exitPerimeter=0;" edge="1" parent="1" source="KxiG0NLmOwjeQJkuFUyw-35">
          <mxGeometry width="50" height="50" relative="1" as="geometry">
            <mxPoint x="810" y="1830" as="sourcePoint" />
            <mxPoint x="860" y="1780" as="targetPoint" />
          </mxGeometry>
        </mxCell>
        <mxCell id="KxiG0NLmOwjeQJkuFUyw-44" value="" style="endArrow=none;html=1;rounded=0;exitX=0.5;exitY=0;exitDx=0;exitDy=0;" edge="1" parent="1" source="KxiG0NLmOwjeQJkuFUyw-38">
          <mxGeometry width="50" height="50" relative="1" as="geometry">
            <mxPoint x="830" y="1880" as="sourcePoint" />
            <mxPoint x="880" y="1830" as="targetPoint" />
          </mxGeometry>
        </mxCell>
        <mxCell id="KxiG0NLmOwjeQJkuFUyw-45" value="" style="endArrow=none;html=1;rounded=0;exitX=0.908;exitY=-0.011;exitDx=0;exitDy=0;exitPerimeter=0;" edge="1" parent="1" source="KxiG0NLmOwjeQJkuFUyw-32" target="KxiG0NLmOwjeQJkuFUyw-36">
          <mxGeometry width="50" height="50" relative="1" as="geometry">
            <mxPoint x="950" y="1880" as="sourcePoint" />
            <mxPoint x="1000" y="1830" as="targetPoint" />
          </mxGeometry>
        </mxCell>
        <mxCell id="KxiG0NLmOwjeQJkuFUyw-46" value="" style="fontSize=12;html=1;endArrow=ERoneToMany;rounded=0;exitX=1;exitY=0.5;exitDx=0;exitDy=0;" edge="1" parent="1" source="KxiG0NLmOwjeQJkuFUyw-30">
          <mxGeometry width="100" height="100" relative="1" as="geometry">
            <mxPoint x="1610" y="880" as="sourcePoint" />
            <mxPoint x="1670" y="940" as="targetPoint" />
          </mxGeometry>
        </mxCell>
        <mxCell id="KxiG0NLmOwjeQJkuFUyw-47" value="&lt;font style=&quot;font-size: 24px;&quot;&gt;KHÁCH HÀNG&lt;/font&gt;" style="rounded=0;whiteSpace=wrap;html=1;" vertex="1" parent="1">
          <mxGeometry x="1670" y="910" width="200" height="60" as="geometry" />
        </mxCell>
        <mxCell id="KxiG0NLmOwjeQJkuFUyw-49" value="&lt;font style=&quot;font-size: 24px;&quot;&gt;&lt;u&gt;MaKH&lt;/u&gt;&lt;/font&gt;" style="ellipse;whiteSpace=wrap;html=1;" vertex="1" parent="1">
          <mxGeometry x="1580" y="780" width="130" height="80" as="geometry" />
        </mxCell>
        <mxCell id="KxiG0NLmOwjeQJkuFUyw-50" value="&lt;font style=&quot;font-size: 24px;&quot;&gt;Ten Kh&lt;/font&gt;" style="ellipse;whiteSpace=wrap;html=1;" vertex="1" parent="1">
          <mxGeometry x="1810" y="790" width="120" height="80" as="geometry" />
        </mxCell>
        <mxCell id="KxiG0NLmOwjeQJkuFUyw-51" value="&lt;font style=&quot;font-size: 24px;&quot;&gt;SDT&lt;/font&gt;" style="ellipse;whiteSpace=wrap;html=1;" vertex="1" parent="1">
          <mxGeometry x="1810" y="1000" width="120" height="80" as="geometry" />
        </mxCell>
        <mxCell id="KxiG0NLmOwjeQJkuFUyw-52" value="&lt;font style=&quot;font-size: 24px;&quot;&gt;Dia Chi&lt;/font&gt;" style="ellipse;whiteSpace=wrap;html=1;" vertex="1" parent="1">
          <mxGeometry x="1570" y="1020" width="120" height="80" as="geometry" />
        </mxCell>
        <mxCell id="KxiG0NLmOwjeQJkuFUyw-53" value="" style="endArrow=none;html=1;rounded=0;" edge="1" parent="1" source="KxiG0NLmOwjeQJkuFUyw-47">
          <mxGeometry width="50" height="50" relative="1" as="geometry">
            <mxPoint x="1600" y="910" as="sourcePoint" />
            <mxPoint x="1650" y="860" as="targetPoint" />
          </mxGeometry>
        </mxCell>
        <mxCell id="KxiG0NLmOwjeQJkuFUyw-54" value="" style="endArrow=none;html=1;rounded=0;exitX=0.75;exitY=0;exitDx=0;exitDy=0;" edge="1" parent="1" source="KxiG0NLmOwjeQJkuFUyw-47">
          <mxGeometry width="50" height="50" relative="1" as="geometry">
            <mxPoint x="1820" y="920" as="sourcePoint" />
            <mxPoint x="1870" y="870" as="targetPoint" />
          </mxGeometry>
        </mxCell>
        <mxCell id="KxiG0NLmOwjeQJkuFUyw-55" value="" style="endArrow=none;html=1;rounded=0;exitX=0.79;exitY=0.115;exitDx=0;exitDy=0;exitPerimeter=0;" edge="1" parent="1" source="KxiG0NLmOwjeQJkuFUyw-52">
          <mxGeometry width="50" height="50" relative="1" as="geometry">
            <mxPoint x="1670" y="1020" as="sourcePoint" />
            <mxPoint x="1720" y="970" as="targetPoint" />
          </mxGeometry>
        </mxCell>
        <mxCell id="KxiG0NLmOwjeQJkuFUyw-56" value="" style="endArrow=none;html=1;rounded=0;exitX=0.308;exitY=0.08;exitDx=0;exitDy=0;exitPerimeter=0;" edge="1" parent="1" source="KxiG0NLmOwjeQJkuFUyw-51">
          <mxGeometry width="50" height="50" relative="1" as="geometry">
            <mxPoint x="1740" y="1020" as="sourcePoint" />
            <mxPoint x="1790" y="970" as="targetPoint" />
          </mxGeometry>
        </mxCell>
      </root>
    </mxGraphModel>
  </diagram>
</mxfile>
